# xmcd CD database file
#
# Track frame offsets:
#	150
#	10152
#	21190
#	31297
#	42880
#	55407
#	65167
#	76290
#	87515
#	99300
#
# Disc length: 1489 seconds
#
# Revision: 0
# Processed by: cddbd v1.5.1PL0 Copyright (c) Steve Scherf et al.
# Submitted via: CDex 1.51
#
DISCID=7905cf0a
DTITLE=Various Artist - Country Honky Tonk Heroes
DYEAR=1995
DGENRE=Country
TTITLE0=Honky Tonk Blues
TTITLE1=There Stands the Glass
TTITLE2=Honky Tonk Man
TTITLE3=Crazy Arms
TTITLE4=White Lightning
TTITLE5=Six Pack to Go
TTITLE6=Excuse Me (I Think I've Got a Heartache)
TTITLE7=Whiskey River
TTITLE8=I Never Go Around Mirrors (I've Got a Heartache to Hide)
TTITLE9=She's Actin' Single (I'm Drinkin' Doubles)
EXTD=YEAR: 1995
EXTT0=
EXTT1=
EXTT2=
EXTT3=
EXTT4=
EXTT5=
EXTT6=
EXTT7=
EXTT8=
EXTT9=
PLAYORDER=
